<svg width="300" height="358" viewBox="0 0 300 358" fill="none" xmlns="http://www.w3.org/2000/svg">
<path d="M81.41 107.18C78.178 51.8988 72.8713 42.6748 64.234 43.1801C55.5966 43.6855 50.2566 56.1308 53.0846 104.503L54.4726 128.256C56.3166 159.784 62.178 178.509 72.5433 177.904C80.318 177.449 84.894 166.781 81.41 107.18ZM0.608643 7.4628L47.2526 4.73615L48.23 43.6828L48.6606 43.6575C50.7806 13.1975 61.378 1.74283 81.2446 0.581482C109.318 -1.05853 123.257 22.3948 127.927 102.293C133.281 193.855 119.451 216.765 92.674 218.331C71.0806 219.592 61.3286 208.461 56.3593 182.751L55.9273 182.776C57.1673 196.571 59.7246 218.089 60.23 226.728L66.8153 339.393L20.1713 342.12L0.608643 7.4628Z" fill="#224ED1"/>
<path d="M141.034 66.3291L179.04 64.1077L191.512 277.461L153.506 279.682L141.034 66.3291ZM137.118 6.75308L175.987 4.48105L178.538 48.1024L139.667 50.3744L137.118 6.75308Z" fill="#224ED1"/>
<path d="M270.546 162.333C266.608 94.9568 259.372 82.3808 247.712 83.0622C236.05 83.7435 228.804 100.636 232.338 161.098L233.652 183.558C236.1 225.45 244.118 251.418 257.94 250.61C268.304 250.003 274.914 237.05 270.546 162.333ZM198.865 62.9488L226.506 61.3329L227.152 102.032L227.584 102.006C228.713 69.4369 239.337 58.4155 256.18 57.4315C280.798 55.9915 293.289 76.9302 298.112 159.421C303.616 253.573 290.932 273.815 268.473 275.129C249.038 276.265 240.43 262.467 235.741 234.139L235.309 234.163C236.701 250.55 239.004 275.118 239.484 283.323L243.725 355.881L216.084 357.497L198.865 62.9488Z" fill="#224ED1"/>
</svg>
