<svg width="850" height="418" viewBox="0 0 850 418" fill="none" xmlns="http://www.w3.org/2000/svg">
<path d="M10.9001 172.35H0.320068V158.46H36.4701V172.35H25.8901V262.34H10.8901V172.35H10.9001Z" fill="black"/>
<path d="M42 154.66H55.89V184.34C55.89 185.45 55.42 194.29 55.1 200.76H55.26C56.37 193.66 58.42 183.55 69 183.55C79.58 183.55 81.31 192.23 81.31 205.49V262.33H67.42V207.07C67.42 200.44 66.63 196.81 63 196.81C58.26 196.81 55.9 204.7 55.9 215.28V262.33H42.01V154.66H42Z" fill="black"/>
<path d="M124.1 224.92H102.31C102.31 245.13 103.57 251.6 107.52 251.6C110.84 251.6 111.62 248.6 111.62 233.76H124.09C124.09 255.23 119.2 263.12 106.72 263.12C91.4102 263.12 88.4102 249.23 88.4102 223.97C88.4102 190.97 95.3601 183.55 107.2 183.55C119.04 183.55 124.09 190.81 124.09 218.44V224.91L124.1 224.92ZM111.62 214.5C111.62 198.08 110.83 195.08 107.52 195.08C104.52 195.08 102.78 197.61 102.31 216.24H111.62V214.5Z" fill="black"/>
<path d="M150.78 211.66C150.78 166.03 156.62 157.35 170.67 157.35C184.72 157.35 188.19 165.72 188.19 191.29C188.19 196.03 187.87 201.71 187.72 204.55H175.09C175.09 202.18 175.25 196.97 175.25 192.08C175.25 174.71 174.46 171.24 171.14 171.24C167.04 171.24 165.61 175.34 165.61 211.97C165.61 246.07 167.03 249.55 170.66 249.55C173.98 249.55 175.24 240.71 175.24 227.76V222.55H170.5V212.13H188.18V262.33H176.18C176.34 259.96 176.65 254.91 176.81 249.54H176.65C175.23 259.8 171.91 263.43 166.23 263.43C155.49 263.43 150.76 255.85 150.76 211.65L150.78 211.66Z" fill="black"/>
<path d="M195.45 223.34C195.45 193.66 200.82 183.56 215.18 183.56C229.54 183.56 234.76 193.66 234.76 223.34C234.76 253.02 229.23 263.12 215.18 263.12C201.13 263.12 195.45 253.33 195.45 223.34ZM220.87 223.34C220.87 200.29 219.29 196.03 215.19 196.03C211.09 196.03 209.35 200.29 209.35 223.34C209.35 246.39 210.93 250.65 215.19 250.65C219.45 250.65 220.87 246.39 220.87 223.34Z" fill="black"/>
<path d="M241.4 223.34C241.4 193.66 246.77 183.56 261.13 183.56C275.49 183.56 280.71 193.66 280.71 223.34C280.71 253.02 275.18 263.12 261.13 263.12C247.08 263.12 241.4 253.33 241.4 223.34ZM266.81 223.34C266.81 200.29 265.23 196.03 261.13 196.03C257.03 196.03 255.29 200.29 255.29 223.34C255.29 246.39 256.87 250.65 261.13 250.65C265.39 250.65 266.81 246.39 266.81 223.34Z" fill="black"/>
<path d="M287.34 222.24C287.34 192.24 292.39 183.56 301.86 183.56C308.02 183.56 311.81 186.88 312.91 194.61H313.07V154.67H326.96V262.34H313.07C313.54 257.13 313.86 252.39 314.18 246.24H314.02C312.44 258.08 309.6 263.13 302.18 263.13C291.92 263.13 287.34 252.71 287.34 222.24ZM313.07 225.55V219.08C313.07 203.61 310.7 196.03 306.91 196.03C303.12 196.03 301.23 200.29 301.23 222.4C301.23 244.51 302.81 250.66 306.76 250.66C310.71 250.66 313.07 239.77 313.07 225.56V225.55Z" fill="black"/>
<path d="M354.9 225.71H368.16C368.16 247.18 368.95 250.66 372.9 250.66C376.53 250.66 377.32 248.45 377.32 236.13C377.32 228.87 376.69 225.87 375.27 223.5C373.85 221.29 371.32 219.08 368.48 216.71C365.95 214.66 362.32 211.5 359.95 208.03C357.42 204.56 354.9 197.77 354.9 186.4C354.9 164.77 361.22 157.35 373.21 157.35C388.05 157.35 390.73 164.3 390.73 197.13H377.78C377.78 172.82 377.31 170.13 374.15 170.13C370.99 170.13 369.73 172.81 369.73 184.81C369.73 193.97 370.52 197.44 372.1 199.65C373.36 201.39 376.36 204.07 379.52 206.6C382.84 209.28 386.15 212.28 388.05 215.76C390.73 220.02 392.15 226.02 392.15 234.86C392.15 256.65 386.94 263.44 373.21 263.44C357.74 263.44 354.9 253.97 354.9 225.71Z" fill="black"/>
<path d="M402.42 240.55V197.29H395.79V184.34H400.68C403.05 184.34 404.15 183.08 404.47 178.18L404.79 166.65H416.32V184.33H426.42V197.28H416.32V239.43C416.32 247.32 417.27 250.01 421.69 250.01C423.43 250.01 424.69 249.85 425.32 249.69V261.85C424.21 262.32 421.69 262.96 418.06 262.96C406.22 262.96 402.43 255.86 402.43 240.54L402.42 240.55Z" fill="black"/>
<path d="M430.84 239.76V184.35H444.73V237.87C444.73 245.76 445.68 249.87 449.47 249.87C454.52 249.87 456.1 239.92 456.1 228.71V184.35H469.99V262.34H456.1C456.42 258.55 457.05 251.45 457.2 245.61H457.04C455.46 256.5 452.62 263.13 443.94 263.13C434.47 263.13 430.84 255.08 430.84 239.76Z" fill="black"/>
<path d="M481.83 197.29H475.04V184.34H481.83V173.76C481.83 159.23 487.04 153.71 499.35 153.71C502.35 153.71 505.03 154.34 506.14 154.66V166.97C505.35 166.65 503.61 166.18 501.72 166.18C496.98 166.18 495.72 168.86 495.72 174.55V184.34H511.19V173.76C511.19 159.39 516.24 153.71 528.56 153.71C531.72 153.71 534.4 154.34 535.35 154.66V166.97C534.56 166.65 532.82 166.18 530.93 166.18C526.19 166.18 525.09 168.86 525.09 174.55V184.34H536.14V197.29H525.09V262.34H511.2V197.29H495.73V262.34H481.84V197.29H481.83Z" fill="black"/>
<path d="M542.14 187.5C546.24 186.87 548.3 184.5 548.3 178.03V177.56H543.25V158.46H556.2V172.2C556.2 188.62 551.31 193.67 542.15 194.93V187.51L542.14 187.5Z" fill="black"/>
<path d="M558.56 235.02H570.87C570.87 249.86 571.82 252.23 575.29 252.23C578.29 252.23 579.55 250.02 579.55 242.28C579.55 237.23 579.23 234.23 577.81 232.65C576.55 230.75 573.86 229.18 571.02 227.44C567.86 225.55 564.39 223.49 562.02 220.34C559.81 217.34 558.55 211.97 558.55 205.97C558.55 191.13 563.6 183.55 575.6 183.55C588.55 183.55 592.18 189.08 592.18 212.13H580.02C580.02 196.82 579.7 194.45 576.23 194.45C572.76 194.45 572.28 197.45 572.28 204.24C572.28 210.08 572.75 212.77 574.17 214.5C575.28 215.92 578.43 217.66 581.59 219.71C584.59 221.45 588.06 223.5 590.11 226.66C592.48 230.13 593.43 235.34 593.43 241.03C593.43 256.34 589.17 263.13 575.75 263.13C561.54 263.13 558.54 255.08 558.54 235.03L558.56 235.02Z" fill="black"/>
<path d="M618.23 158.45H634.81L638.6 238.97H639.23L644.44 158.45H659.44L664.81 238.97H665.44L669.55 158.45H684.39L673.97 262.33H655.81L651.39 186.39H650.76L645.71 262.33H628.5L618.24 158.45H618.23Z" fill="black"/>
<path d="M684.7 242.29C684.7 228.55 688.8 220.5 700.8 220.5H707.27V206.76C707.27 197.6 706.32 195.08 703.32 195.08C700 195.08 699.06 198.4 699.06 207.71C699.06 210.24 699.22 213.08 699.38 214.97H687.07C686.91 213.71 686.6 209.92 686.6 206.92C686.6 190.66 691.65 183.55 704.13 183.55C716.61 183.55 721.18 191.13 721.18 208.02V262.33H707.29C707.61 257.91 707.92 252.86 708.08 249.07H707.92C706.81 258.23 703.97 263.12 697.03 263.12C687.08 263.12 684.72 253.96 684.72 242.28L684.7 242.29ZM707.27 232.5V229.18H703.32C698.27 229.18 697.48 232.97 697.48 240.71C697.48 248.45 698.74 251.6 701.74 251.6C704.9 251.6 707.27 246.71 707.27 232.5Z" fill="black"/>
<path d="M730.16 162.56H744.37V178.51H730.16V162.56ZM730.32 184.35H744.21V262.34H730.32V184.35Z" fill="black"/>
<path d="M756.37 240.55V197.29H749.74V184.34H754.63C757 184.34 758.1 183.08 758.42 178.18L758.74 166.65H770.27V184.33H780.37V197.28H770.27V239.43C770.27 247.32 771.22 250.01 775.64 250.01C777.38 250.01 778.64 249.85 779.27 249.69V261.85C778.16 262.32 775.64 262.96 772.01 262.96C760.17 262.96 756.38 255.86 756.38 240.54L756.37 240.55Z" fill="black"/>
<path d="M786.68 162.56H800.89V178.51H786.68V162.56ZM786.84 184.35H800.73V262.34H786.84V184.35Z" fill="black"/>
<path d="M810.36 184.35H824.25L823.46 200.77H823.62C825.04 190.82 827.88 183.56 837.36 183.56C847.78 183.56 849.67 192.72 849.67 205.5V262.34H835.78V207.08C835.78 200.45 835.15 196.82 831.52 196.82C826.63 196.82 824.26 204.4 824.26 215.29V262.34H810.37V184.35H810.36Z" fill="black"/>
<path d="M328.86 15.23H317.54V0.359985H356.23V15.23H344.91V111.54H328.86V15.23Z" fill="black"/>
<path d="M352.86 90.08C352.86 75.38 357.25 66.76 370.09 66.76H377.02V52.06C377.02 42.26 376.01 39.56 372.8 39.56C369.25 39.56 368.24 43.11 368.24 53.08C368.24 55.78 368.41 58.82 368.58 60.85H355.4C355.23 59.5 354.89 55.44 354.89 52.23C354.89 34.83 360.3 27.22 373.64 27.22C386.98 27.22 391.89 35.33 391.89 53.41V111.53H377.02C377.36 106.8 377.7 101.39 377.86 97.34H377.69C376.51 107.14 373.47 112.38 366.03 112.38C355.39 112.38 352.85 102.58 352.85 90.08H352.86ZM377.02 79.61V76.06H372.8C367.39 76.06 366.55 80.11 366.55 88.39C366.55 96.67 367.9 100.05 371.11 100.05C374.49 100.05 377.02 94.81 377.02 79.61Z" fill="black"/>
<path d="M401.68 28.07H416.55L415.87 43.61H416.04C417.39 31.44 421.78 27.22 429.05 27.22C439.36 27.22 444.09 36.17 444.09 67.94C444.09 104.27 438.35 112.38 428.72 112.38C420.61 112.38 417.4 107.31 416.05 96.84H415.88C416.05 102.58 416.56 111.54 416.56 114.92V143.3H401.69V28.07H401.68ZM429.22 68.62C429.22 44.8 427.02 40.57 423.14 40.57C419.26 40.57 416.55 45.98 416.55 67.1V76.22C416.55 90.41 418.58 99.03 423.31 99.03C426.86 99.03 429.22 94.64 429.22 68.62Z" fill="black"/>
<path d="M463.86 0.369995H479.74V111.54H463.86V0.369995Z" fill="black"/>
<path d="M490.39 28.07H505.26L504.41 45.64H504.58C506.1 35 509.14 27.22 519.28 27.22C530.43 27.22 532.46 37.02 532.46 50.7V111.52H517.59V52.39C517.59 45.29 516.91 41.41 513.03 41.41C507.79 41.41 505.26 49.52 505.26 61.18V111.53H490.39V28.07Z" fill="black"/>
<path d="M439.47 273.79L645.1 234.45L654.59 377.89L187.31 417.5L203.93 284.98L439.95 283.8" fill="#224ED1"/>
<path d="M225.9 357.81C221.99 320.46 225.14 314.15 234.7 313.15C243.5 312.23 246.78 317.99 248.89 338.11C249.34 342.39 249.57 347.07 249.69 349.34L242.02 350.14C241.93 348.11 241.6 343.7 241.14 339.3C239.52 323.83 238.45 320.89 235.56 321.19C232.04 321.56 231.15 325.21 234.48 357.03C237.62 386.96 239.2 389.97 242.22 389.66C245.24 389.34 245.47 380.67 244.28 369.23L243.67 363.44L239.65 363.86L238.96 357.32L250.78 356.08L254.92 395.57L247.88 396.31C247.82 394.54 247.65 390.49 247.33 386.2H247.2C247.04 394.37 244.95 397.51 240.93 397.93C233.38 398.72 229.67 393.64 225.92 357.8L225.9 357.81Z" fill="white"/>
<path d="M256.07 332.65L264.12 331.81L264.89 345.21L265.14 345.18C265.1 336.28 266.7 330.9 272.36 330.31C277.64 329.76 280.8 333.24 282.66 350.97C283.27 356.76 283.63 363.84 283.76 367.51L276.97 368.22C276.85 364.67 276.41 357.98 275.81 352.32C274.52 340 272.87 337.63 270.48 337.88C267.71 338.17 265.4 344.01 267.31 362.24L270.63 393.93L262.58 394.77L256.07 332.64V332.65Z" fill="white"/>
<path d="M290.45 375.59C289.38 365.4 291.31 358.34 300.24 357.4L305.14 356.89L303.84 344.44C302.98 336.27 301.87 334.09 299.1 334.38C296.08 334.7 295.52 337.81 296.37 345.98C296.63 348.5 296.98 350.62 297.28 352.24L289.86 353.02C289.62 351.9 289.05 348.91 288.78 346.39C287.49 334.06 290.33 328.43 298.76 327.54C307.31 326.64 310.61 331.38 311.95 344.21L316.65 389.11L308.6 389.95C308.4 385.65 308.2 382.49 307.98 379.21H307.85C307.77 386.99 306.02 390.86 300.99 391.39C293.95 392.13 291.49 385.65 290.43 375.59H290.45ZM306 365.06L305.72 362.42L301.7 362.84C297.42 363.29 297.05 367.01 297.79 374.06C298.55 381.35 300.04 384.63 302.81 384.34C305.83 384.02 307.44 378.77 306 365.06Z" fill="white"/>
<path d="M331.28 375.76H331.15C331.56 379.67 332.34 384.68 332.88 387.42L324.83 388.26L315.84 302.49L323.89 301.65L326.26 324.29C326.44 326.05 326.85 332.37 327.05 336.67H327.18C327.25 327.62 330.46 324.23 335.23 323.73C342.52 322.97 346.09 329.08 348.61 353.1C351.43 380.01 347.79 386.5 341.37 387.17C335.58 387.78 333.15 383.96 331.28 375.77V375.76ZM340.59 354.19C338.57 334.95 336.76 330.94 333.36 331.3C329.59 331.7 327.65 337.49 329.39 354.09L330.08 360.63C331.23 371.57 334.58 380.5 338.1 380.13C341.12 379.81 342.9 376.19 340.59 354.19Z" fill="white"/>
<path d="M370.34 354.12L355.28 301.41L365.09 300.38L374.12 341.65L374.37 341.62L374.4 299.4L382.83 298.52L378.9 353.22L381.94 382.27L373.39 383.17L370.35 354.12H370.34Z" fill="white"/>
<path d="M393.27 349.68C390.71 325.28 393.6 317.6 403.41 316.58C413.09 315.57 417.51 322.48 420.06 346.88C422.64 371.53 419.73 378.96 410.05 379.97C400.24 381 395.86 374.34 393.27 349.69V349.68ZM412 347.72C409.87 327.35 408.06 323.47 404.16 323.88C400.26 324.29 399.17 328.47 401.31 348.84C403.46 369.34 405.38 373.08 409.27 372.67C413.16 372.26 414.14 368.22 412 347.72Z" fill="white"/>
<path d="M428.21 360.39L423.47 315.11L431.52 314.27L436.21 359.04C436.93 365.96 438.21 369.64 441.61 369.28C446.39 368.78 446.8 359.33 445.77 349.52L441.96 313.17L450.01 312.33L456.52 374.46L448.47 375.3C448.42 372.38 448.23 366.93 447.89 362.52H447.76C447.48 370.83 446.01 376.19 439.6 376.87C432.68 377.59 429.41 371.83 428.21 360.39Z" fill="white"/>
<path d="M458.3 311.47L466.35 310.63L467.12 324.03L467.37 324C467.33 315.1 468.93 309.72 474.59 309.13C479.87 308.58 483.03 312.06 484.89 329.79C485.5 335.58 485.86 342.66 485.99 346.33L479.2 347.04C479.08 343.49 478.64 336.8 478.04 331.14C476.75 318.82 475.1 316.45 472.71 316.7C469.94 316.99 467.63 322.83 469.54 341.06L472.86 372.75L464.81 373.59L458.3 311.46V311.47Z" fill="white"/>
<path d="M496.51 286.61L506.07 285.61L519.48 357.82L519.98 357.77L517.38 284.42L526.31 283.48L526.18 367.16L513.85 368.45L496.5 286.61H496.51Z" fill="white"/>
<path d="M533.3 286.95L541.6 286.08L542.79 297.4L534.49 298.27L533.3 286.95ZM535.15 303.42L543.2 302.58L549.71 364.71L541.66 365.55L535.15 303.42Z" fill="white"/>
<path d="M565.46 351.23H565.33C565.74 355.14 566.52 360.15 567.06 362.89L559.01 363.73L550.02 277.96L558.07 277.12L560.44 299.76C560.62 301.52 561.03 307.84 561.23 312.14H561.36C561.43 303.09 564.64 299.7 569.41 299.2C576.7 298.44 580.27 304.55 582.79 328.57C585.61 355.48 581.97 361.97 575.55 362.64C569.76 363.25 567.33 359.43 565.46 351.24V351.23ZM574.77 329.65C572.75 310.41 570.94 306.4 567.54 306.76C563.77 307.16 561.83 312.95 563.57 329.55L564.26 336.09C565.41 347.03 568.76 355.96 572.28 355.59C575.3 355.27 577.08 351.65 574.78 329.65H574.77Z" fill="white"/>
<path d="M597.04 328.59L597.07 328.84C598.97 346.95 600.76 353.12 604.53 352.72C607.42 352.42 607.89 349.57 606.5 336.37L614.05 335.58C615.85 352.81 613.04 358.7 604.74 359.57C594.55 360.64 591.2 350.44 589.02 329.68C586.2 302.77 590.55 296.97 598.6 296.13C606.65 295.29 610.33 300.11 612.69 322.63L613.14 326.91L597.04 328.6V328.59ZM596.46 323.06L605.01 322.16L604.9 321.15C603.24 305.3 602.2 302.62 599.3 302.92C596.41 303.22 595.02 305.78 596.45 323.05L596.46 323.06Z" fill="white"/>
<path d="M618.62 289.46L616.81 272.23L624.61 271.41L626.42 288.64L628.69 332.14L625.55 332.47L618.63 289.46H618.62ZM624.06 343.82L632.36 342.95L633.72 355.9L625.42 356.77L624.06 343.82Z" fill="white"/>
</svg>
