<svg width="120" height="147" viewBox="0 0 120 147" fill="none" xmlns="http://www.w3.org/2000/svg">
<path d="M84.75 104.84H87.76C90.61 104.84 91.1 106.48 91.1 109.44C91.1 111.71 90.88 112.95 89.73 113.39V113.42C91.07 113.89 91.37 115.31 91.37 117.69C91.37 121.66 90.74 122.87 88.05 122.87H84.73V104.84H84.75ZM87.71 112.73C88.56 112.73 88.78 112.24 88.78 110.02C88.78 107.8 88.7 107.03 87.79 107.03H87.32V112.73H87.7H87.71ZM87.96 120.68C88.73 120.68 88.89 120.35 88.89 117.36C88.89 115.2 88.75 114.51 87.82 114.51H87.33V120.67H87.96V120.68Z" fill="#224ED1"/>
<path d="M98.2601 116.38H94.48C94.48 119.89 94.7001 121.01 95.3801 121.01C95.9601 121.01 96.0901 120.49 96.0901 117.91H98.2501C98.2501 121.64 97.4001 123.01 95.2401 123.01C92.5801 123.01 92.0601 120.6 92.0601 116.22C92.0601 110.49 93.2701 109.21 95.3201 109.21C97.3701 109.21 98.2501 110.47 98.2501 115.27V116.39L98.2601 116.38ZM96.0901 114.57C96.0901 111.72 95.9501 111.2 95.3801 111.2C94.8601 111.2 94.56 111.64 94.48 114.87H96.1V114.57H96.0901Z" fill="#224ED1"/>
<path d="M98.8901 119.39C98.8901 117.01 99.6001 115.61 101.68 115.61H102.8V113.23C102.8 111.64 102.64 111.2 102.11 111.2C101.54 111.2 101.37 111.78 101.37 113.39C101.37 113.83 101.4 114.32 101.42 114.65H99.2802C99.2502 114.43 99.2001 113.77 99.2001 113.25C99.2001 110.43 100.08 109.2 102.24 109.2C104.4 109.2 105.2 110.52 105.2 113.45V122.88H102.79C102.84 122.11 102.9 121.24 102.93 120.58H102.9C102.71 122.17 102.22 123.02 101.01 123.02C99.2801 123.02 98.8701 121.43 98.8701 119.4L98.8901 119.39ZM102.81 117.69V117.11H102.12C101.24 117.11 101.11 117.77 101.11 119.11C101.11 120.45 101.33 121 101.85 121C102.4 121 102.81 120.15 102.81 117.68V117.69Z" fill="#224ED1"/>
<path d="M105.93 116.1C105.93 110.65 107 109.2 109.16 109.2C111.32 109.2 112.09 110.52 112.09 115.06H109.93C109.93 111.85 109.74 111.36 109.22 111.36C108.59 111.36 108.34 111.88 108.34 116.1C108.34 120.1 108.59 120.84 109.19 120.84C109.79 120.84 109.93 120.43 109.93 117.17H112.09C112.09 121.77 111.38 123.01 109.08 123.01C106.78 123.01 105.93 121.15 105.93 116.11V116.1Z" fill="#224ED1"/>
<path d="M113 104.18H115.41V109.33C115.41 109.52 115.33 111.06 115.27 112.18H115.3C115.49 110.95 115.85 109.19 117.68 109.19C119.51 109.19 119.82 110.7 119.82 113V122.86H117.41V113.27C117.41 112.12 117.27 111.49 116.64 111.49C115.82 111.49 115.41 112.86 115.41 114.7V122.87H113V104.18Z" fill="#224ED1"/>
<path d="M73 123.36H75.88C78.48 123.36 79.44 124.54 79.44 129.69C79.44 134.84 78.51 135.94 76.18 135.94H75.6V141.39H73V123.36ZM76.04 133.94C76.83 133.94 77.08 133.47 77.08 129.99C77.08 126.26 76.86 125.77 76.04 125.77H75.6V133.94H76.04Z" fill="#224ED1"/>
<path d="M80.45 122.71H82.8599V141.4H80.45V122.71Z" fill="#224ED1"/>
<path d="M83.8701 137.47V127.85H86.2802V137.14C86.2802 138.51 86.4401 139.22 87.1001 139.22C87.9801 139.22 88.2501 137.49 88.2501 135.55V127.85H90.6601V141.39H88.2501C88.3001 140.73 88.4101 139.5 88.4401 138.49H88.4101C88.1401 140.38 87.6401 141.53 86.1401 141.53C84.5001 141.53 83.8701 140.13 83.8701 137.47Z" fill="#224ED1"/>
<path d="M98.2899 142.79C98.2899 145.42 97.2999 147.01 94.8699 147.01C92.1299 147.01 91.4199 145.15 91.4199 143.67C91.4199 142.41 91.8599 141.42 92.6799 141.2V141.17C92.0199 140.7 91.9099 139.94 91.9099 139.28C91.9099 138.35 92.1799 137.58 92.7599 137.31V137.28C91.9699 136.62 91.58 135.25 91.58 132.79C91.58 128.98 92.48 127.72 94.7 127.72C95.3 127.72 95.8199 127.8 96.2299 128.02L96.2599 127.99C95.9899 127.74 95.71 127.22 95.71 126.65C95.71 125.75 96.26 125.14 97.52 125.14C97.85 125.14 98.1 125.19 98.21 125.25V127.28C98.13 127.25 97.9899 127.23 97.7999 127.23C97.3299 127.23 97.1199 127.45 97.1199 128C97.1199 128.36 97.2 128.74 97.28 129.18C97.66 129.95 97.83 131.13 97.83 132.8C97.83 136.69 96.87 137.84 94.71 137.84C94.41 137.84 94.13 137.81 93.89 137.79C93.84 137.93 93.8099 138.17 93.8099 138.5C93.8099 139.13 94.0299 139.46 94.4999 139.46H95.3799C97.4599 139.46 98.3099 140.67 98.3099 142.8L98.2899 142.79ZM95.8699 143.31C95.8699 142.27 95.7099 141.64 94.9099 141.64H94.64C94.01 141.64 93.7399 142.24 93.7399 143.42C93.7399 144.19 93.93 145.09 94.84 145.09C95.55 145.09 95.8799 144.6 95.8799 143.31H95.8699ZM93.8499 132.79C93.8499 135.64 94.1 136 94.7 136C95.3 136 95.5499 135.64 95.5499 132.79C95.5499 129.94 95.3 129.56 94.7 129.56C94.1 129.56 93.8499 129.97 93.8499 132.79Z" fill="#224ED1"/>
<path d="M0.179932 3.26002L15.7 2.35001L16.0299 15.31H16.17C16.88 5.16001 20.3999 1.35002 27.0099 0.970016C36.3499 0.420016 40.9899 8.23001 42.5499 34.82C44.3299 65.29 39.7299 72.91 30.8199 73.44C23.6299 73.86 20.3899 70.16 18.7299 61.6H18.5899C18.9999 66.2 19.8499 73.36 20.0199 76.23L22.2099 113.72L6.68994 114.63L0.179932 3.26002ZM27.0699 36.45C25.9899 18.05 24.2299 14.98 21.3499 15.15C18.4799 15.32 16.7 19.46 17.64 35.56L18.0999 43.47C18.7099 53.96 20.6599 60.19 24.1099 59.99C26.6999 59.84 28.2199 56.29 27.0599 36.45H27.0699Z" fill="#224ED1"/>
<path d="M45.6099 3.03002L58.5499 2.27002L59.3999 16.79L46.4599 17.55L45.6099 3.03002ZM46.9099 22.85L59.5599 22.11L63.7099 93.11L51.0599 93.85L46.9099 22.85Z" fill="#224ED1"/>
<path d="M66.1599 21.73L75.3599 21.19L75.5699 34.73H75.71C76.09 23.88 79.6199 20.22 85.2299 19.89C93.4199 19.41 97.5799 26.38 99.1799 53.83C101.01 85.16 96.7899 91.9 89.3199 92.34C82.8499 92.72 79.9899 88.13 78.4299 78.7H78.2899C78.7499 84.16 79.5199 92.34 79.6799 95.07L81.09 119.22L71.89 119.76L66.1599 21.74V21.73ZM90.0099 54.8C88.6999 32.38 86.2899 28.19 82.4099 28.42C78.5299 28.65 76.1199 34.27 77.2899 54.39L77.7299 61.86C78.5399 75.8 81.2099 84.44 85.8099 84.17C89.2599 83.97 91.4599 79.66 90.0099 54.79V54.8Z" fill="#224ED1"/>
</svg>
